<?xml version="1.0" encoding="utf-8" standalone="no"?>
<!DOCTYPE svg PUBLIC "-//W3C//DTD SVG 1.1//EN"
  "http://www.w3.org/Graphics/SVG/1.1/DTD/svg11.dtd">
<svg xmlns:xlink="http://www.w3.org/1999/xlink" width="734.4pt" height="396pt" viewBox="0 0 734.4 396" xmlns="http://www.w3.org/2000/svg" version="1.1">
 <metadata>
  <rdf:RDF xmlns:dc="http://purl.org/dc/elements/1.1/" xmlns:cc="http://creativecommons.org/ns#" xmlns:rdf="http://www.w3.org/1999/02/22-rdf-syntax-ns#">
   <cc:Work>
    <dc:type rdf:resource="http://purl.org/dc/dcmitype/StillImage"/>
    <dc:date>2026-09-15T14:50:03.825495</dc:date>
    <dc:format>image/svg+xml</dc:format>
    <dc:creator>
     <cc:Agent>
      <dc:title>Matplotlib v3.10.8, https://matplotlib.org/</dc:title>
     </cc:Agent>
    </dc:creator>
   </cc:Work>
  </rdf:RDF>
 </metadata>
 <defs>
  <style type="text/css">*{stroke-linejoin: round; stroke-linecap: butt}</style>
 </defs>
 <g id="figure_1">
  <g id="patch_1">
   <path d="M 0 396 
L 734.4 396 
L 734.4 0 
L 0 0 
z
" style="fill: #ffffff"/>
  </g>
  <g id="axes_1">
   <g id="patch_2">
    <path d="M 35.9856 99.792 
L 698.4144 99.792 
Q 708.696 99.792 708.696 94.248 
L 708.696 56.628 
Q 708.696 51.084 698.4144 51.084 
L 35.9856 51.084 
Q 25.704 51.084 25.704 56.628 
L 25.704 94.248 
Q 25.704 99.792 35.9856 99.792 
z
" clip-path="url(#pbf4dbc298e)" style="fill: #fcf4eb; stroke: #e7cdb2; stroke-linejoin: miter"/>
   </g>
   <g id="patch_3">
    <path d="M 279.8064 77.616 
Q 297.0648 77.616 312.534346 77.616 
" clip-path="url(#pbf4dbc298e)" style="fill: none; stroke: #c8782f; stroke-width: 1.6; stroke-linecap: round"/>
    <path d="M 308.134346 75.416 
L 312.534346 77.616 
L 308.134346 79.816 
z
" clip-path="url(#pbf4dbc298e)" style="fill: #c8782f; stroke: #c8782f; stroke-width: 1.6; stroke-linecap: round"/>
   </g>
   <g id="patch_4">
    <path d="M 35.9856 307.296 
L 213.7104 307.296 
Q 223.992 307.296 223.992 301.752 
L 223.992 137.412 
Q 223.992 131.868 213.7104 131.868 
L 35.9856 131.868 
Q 25.704 131.868 25.704 137.412 
L 25.704 301.752 
Q 25.704 307.296 35.9856 307.296 
z
" clip-path="url(#pbf4dbc298e)" style="fill: #eef4fa; stroke: #c9d3dc; stroke-linejoin: miter"/>
   </g>
   <g id="patch_5">
    <path d="M 278.3376 307.296 
L 456.0624 307.296 
Q 466.344 307.296 466.344 301.752 
L 466.344 137.412 
Q 466.344 131.868 456.0624 131.868 
L 278.3376 131.868 
Q 268.056 131.868 268.056 137.412 
L 268.056 301.752 
Q 268.056 307.296 278.3376 307.296 
z
" clip-path="url(#pbf4dbc298e)" style="fill: #edf7f5; stroke: #c9d3dc; stroke-linejoin: miter"/>
   </g>
   <g id="patch_6">
    <path d="M 520.6896 307.296 
L 698.4144 307.296 
Q 708.696 307.296 708.696 301.752 
L 708.696 137.412 
Q 708.696 131.868 698.4144 131.868 
L 520.6896 131.868 
Q 510.408 131.868 510.408 137.412 
L 510.408 301.752 
Q 510.408 307.296 520.6896 307.296 
z
" clip-path="url(#pbf4dbc298e)" style="fill: #f3f5f8; stroke: #c9d3dc; stroke-linejoin: miter"/>
   </g>
   <g id="patch_7">
    <path d="M 124.848 104.94 
Q 124.848 115.434 124.848 124.139146 
" clip-path="url(#pbf4dbc298e)" style="fill: none; stroke: #c8782f; stroke-width: 1.6; stroke-linecap: round"/>
    <path d="M 127.048 119.739146 
L 124.848 124.139146 
L 122.648 119.739146 
z
" clip-path="url(#pbf4dbc298e)" style="fill: #c8782f; stroke: #c8782f; stroke-width: 1.6; stroke-linecap: round"/>
   </g>
   <g id="patch_8">
    <path d="M 609.552 104.94 
Q 609.552 115.434 609.552 124.139146 
" clip-path="url(#pbf4dbc298e)" style="fill: none; stroke: #c8782f; stroke-width: 1.6; stroke-linecap: round"/>
    <path d="M 611.752 119.739146 
L 609.552 124.139146 
L 607.352 119.739146 
z
" clip-path="url(#pbf4dbc298e)" style="fill: #c8782f; stroke: #c8782f; stroke-width: 1.6; stroke-linecap: round"/>
   </g>
   <g id="patch_9">
    <path d="M 39.6576 207.108 
L 58.575744 207.108 
L 58.575744 194.832 
L 39.6576 194.832 
z
" clip-path="url(#pbf4dbc298e)" style="fill: #5384b8; stroke: #ffffff; stroke-width: 0.6; stroke-linejoin: miter"/>
   </g>
   <g id="patch_10">
    <path d="M 60.2208 207.108 
L 79.138944 207.108 
L 79.138944 194.832 
L 60.2208 194.832 
z
" clip-path="url(#pbf4dbc298e)" style="fill: #9ebad7; stroke: #ffffff; stroke-width: 0.6; stroke-linejoin: miter"/>
   </g>
   <g id="patch_11">
    <path d="M 80.784 207.108 
L 99.702144 207.108 
L 99.702144 194.832 
L 80.784 194.832 
z
" clip-path="url(#pbf4dbc298e)" style="fill: #d4e0ed; stroke: #ffffff; stroke-width: 0.6; stroke-linejoin: miter"/>
   </g>
   <g id="patch_12">
    <path d="M 101.3472 207.108 
L 120.265344 207.108 
L 120.265344 194.832 
L 101.3472 194.832 
z
" clip-path="url(#pbf4dbc298e)" style="fill: #6993c1; stroke: #ffffff; stroke-width: 0.6; stroke-linejoin: miter"/>
   </g>
   <g id="patch_13">
    <path d="M 121.9104 207.108 
L 140.828544 207.108 
L 140.828544 194.832 
L 121.9104 194.832 
z
" clip-path="url(#pbf4dbc298e)" style="fill: #93b2d2; stroke: #ffffff; stroke-width: 0.6; stroke-linejoin: miter"/>
   </g>
   <g id="patch_14">
    <path d="M 142.4736 207.108 
L 161.391744 207.108 
L 161.391744 194.832 
L 142.4736 194.832 
z
" clip-path="url(#pbf4dbc298e)" style="fill: #3d74af; stroke: #ffffff; stroke-width: 0.6; stroke-linejoin: miter"/>
   </g>
   <g id="patch_15">
    <path d="M 163.0368 207.108 
L 181.954944 207.108 
L 181.954944 194.832 
L 163.0368 194.832 
z
" clip-path="url(#pbf4dbc298e)" style="fill: #a9c1db; stroke: #ffffff; stroke-width: 0.6; stroke-linejoin: miter"/>
   </g>
   <g id="patch_16">
    <path d="M 183.6 207.108 
L 202.518144 207.108 
L 202.518144 194.832 
L 183.6 194.832 
z
" clip-path="url(#pbf4dbc298e)" style="fill: #7ea3ca; stroke: #ffffff; stroke-width: 0.6; stroke-linejoin: miter"/>
   </g>
   <g id="patch_17">
    <path d="M 38.1888 208.692 
L 203.4288 208.692 
L 203.4288 193.248 
L 38.1888 193.248 
L 38.1888 208.692 
z
" clip-path="url(#pbf4dbc298e)" style="fill: none; stroke: #2865a6; stroke-width: 0.6; stroke-linejoin: miter"/>
   </g>
   <g id="patch_18">
    <path d="M 39.6576 249.48 
L 58.575744 249.48 
L 58.575744 237.204 
L 39.6576 237.204 
z
" clip-path="url(#pbf4dbc298e)" style="fill: #ecd0b6; stroke: #ffffff; stroke-width: 0.6; stroke-linejoin: miter"/>
   </g>
   <g id="patch_19">
    <path d="M 60.2208 249.48 
L 79.138944 249.48 
L 79.138944 237.204 
L 60.2208 237.204 
z
" clip-path="url(#pbf4dbc298e)" style="fill: #ce8544; stroke: #ffffff; stroke-width: 0.6; stroke-linejoin: miter"/>
   </g>
   <g id="patch_20">
    <path d="M 80.784 249.48 
L 99.702144 249.48 
L 99.702144 237.204 
L 80.784 237.204 
z
" clip-path="url(#pbf4dbc298e)" style="fill: #d8a06d; stroke: #ffffff; stroke-width: 0.6; stroke-linejoin: miter"/>
   </g>
   <g id="patch_21">
    <path d="M 101.3472 249.48 
L 120.265344 249.48 
L 120.265344 237.204 
L 101.3472 237.204 
z
" clip-path="url(#pbf4dbc298e)" style="fill: #f4e4d5; stroke: #ffffff; stroke-width: 0.6; stroke-linejoin: miter"/>
   </g>
   <g id="patch_22">
    <path d="M 121.9104 249.48 
L 140.828544 249.48 
L 140.828544 237.204 
L 121.9104 237.204 
z
" clip-path="url(#pbf4dbc298e)" style="fill: #d08c4e; stroke: #ffffff; stroke-width: 0.6; stroke-linejoin: miter"/>
   </g>
   <g id="patch_23">
    <path d="M 142.4736 249.48 
L 161.391744 249.48 
L 161.391744 237.204 
L 142.4736 237.204 
z
" clip-path="url(#pbf4dbc298e)" style="fill: #e9c9ac; stroke: #ffffff; stroke-width: 0.6; stroke-linejoin: miter"/>
   </g>
   <g id="patch_24">
    <path d="M 163.0368 249.48 
L 181.954944 249.48 
L 181.954944 237.204 
L 163.0368 237.204 
z
" clip-path="url(#pbf4dbc298e)" style="fill: #dba778; stroke: #ffffff; stroke-width: 0.6; stroke-linejoin: miter"/>
   </g>
   <g id="patch_25">
    <path d="M 183.6 249.48 
L 202.518144 249.48 
L 202.518144 237.204 
L 183.6 237.204 
z
" clip-path="url(#pbf4dbc298e)" style="fill: #eed6c1; stroke: #ffffff; stroke-width: 0.6; stroke-linejoin: miter"/>
   </g>
   <g id="patch_26">
    <path d="M 38.1888 251.064 
L 203.4288 251.064 
L 203.4288 235.62 
L 38.1888 235.62 
L 38.1888 251.064 
z
" clip-path="url(#pbf4dbc298e)" style="fill: none; stroke: #c8782f; stroke-width: 0.6; stroke-linejoin: miter"/>
   </g>
   <g id="patch_27">
    <path d="M 39.6576 291.852 
L 58.575744 291.852 
L 58.575744 279.576 
L 39.6576 279.576 
z
" clip-path="url(#pbf4dbc298e)" style="fill: #bac3cc; stroke: #ffffff; stroke-width: 0.6; stroke-linejoin: miter"/>
   </g>
   <g id="patch_28">
    <path d="M 60.2208 291.852 
L 79.138944 291.852 
L 79.138944 279.576 
L 60.2208 279.576 
z
" clip-path="url(#pbf4dbc298e)" style="fill: #dce1e6; stroke: #ffffff; stroke-width: 0.6; stroke-linejoin: miter"/>
   </g>
   <g id="patch_29">
    <path d="M 80.784 291.852 
L 99.702144 291.852 
L 99.702144 279.576 
L 80.784 279.576 
z
" clip-path="url(#pbf4dbc298e)" style="fill: #919fae; stroke: #ffffff; stroke-width: 0.6; stroke-linejoin: miter"/>
   </g>
   <g id="patch_30">
    <path d="M 101.3472 291.852 
L 120.265344 291.852 
L 120.265344 279.576 
L 101.3472 279.576 
z
" clip-path="url(#pbf4dbc298e)" style="fill: #cfd5dc; stroke: #ffffff; stroke-width: 0.6; stroke-linejoin: miter"/>
   </g>
   <g id="patch_31">
    <path d="M 121.9104 291.852 
L 140.828544 291.852 
L 140.828544 279.576 
L 121.9104 279.576 
z
" clip-path="url(#pbf4dbc298e)" style="fill: #a5b1bd; stroke: #ffffff; stroke-width: 0.6; stroke-linejoin: miter"/>
   </g>
   <g id="patch_32">
    <path d="M 142.4736 291.852 
L 161.391744 291.852 
L 161.391744 279.576 
L 142.4736 279.576 
z
" clip-path="url(#pbf4dbc298e)" style="fill: #bac3cc; stroke: #ffffff; stroke-width: 0.6; stroke-linejoin: miter"/>
   </g>
   <g id="patch_33">
    <path d="M 163.0368 291.852 
L 181.954944 291.852 
L 181.954944 279.576 
L 163.0368 279.576 
z
" clip-path="url(#pbf4dbc298e)" style="fill: #c8cfd7; stroke: #ffffff; stroke-width: 0.6; stroke-linejoin: miter"/>
   </g>
   <g id="patch_34">
    <path d="M 183.6 291.852 
L 202.518144 291.852 
L 202.518144 279.576 
L 183.6 279.576 
z
" clip-path="url(#pbf4dbc298e)" style="fill: #98a5b3; stroke: #ffffff; stroke-width: 0.6; stroke-linejoin: miter"/>
   </g>
   <g id="patch_35">
    <path d="M 38.1888 293.436 
L 203.4288 293.436 
L 203.4288 277.992 
L 38.1888 277.992 
L 38.1888 293.436 
z
" clip-path="url(#pbf4dbc298e)" style="fill: none; stroke: #75879a; stroke-width: 0.6; stroke-linejoin: miter"/>
   </g>
   <g id="patch_36">
    <path d="M 293.0256 219.384 
L 441.3744 219.384 
Q 451.656 219.384 451.656 213.84 
L 451.656 183.348 
Q 451.656 177.804 441.3744 177.804 
L 293.0256 177.804 
Q 282.744 177.804 282.744 183.348 
L 282.744 213.84 
Q 282.744 219.384 293.0256 219.384 
z
" clip-path="url(#pbf4dbc298e)" style="fill: #ffffff; stroke: #bedcd8; stroke-linejoin: miter"/>
   </g>
   <g id="patch_37">
    <path d="M 367.2 226.320854 
Q 367.2 230.274 367.2 234.227146 
" clip-path="url(#pbf4dbc298e)" style="fill: none; stroke: #167e83; stroke-width: 1.6; stroke-linecap: round"/>
    <path d="M 365.4 229.920854 
L 367.2 226.320854 
L 369 229.920854 
" clip-path="url(#pbf4dbc298e)" style="fill: none; stroke: #167e83; stroke-width: 1.6; stroke-linecap: round"/>
    <path d="M 369 230.627146 
L 367.2 234.227146 
L 365.4 230.627146 
" clip-path="url(#pbf4dbc298e)" style="fill: none; stroke: #167e83; stroke-width: 1.6; stroke-linecap: round"/>
   </g>
   <g id="patch_38">
    <path d="M 293.0256 282.348 
L 441.3744 282.348 
Q 451.656 282.348 451.656 276.804 
L 451.656 246.312 
Q 451.656 240.768 441.3744 240.768 
L 293.0256 240.768 
Q 282.744 240.768 282.744 246.312 
L 282.744 276.804 
Q 282.744 282.348 293.0256 282.348 
z
" clip-path="url(#pbf4dbc298e)" style="fill: #ffffff; stroke: #bedcd8; stroke-linejoin: miter"/>
   </g>
   <g id="patch_39">
    <path d="M 233.124854 201.96 
Q 246.024 201.96 258.923146 201.96 
" clip-path="url(#pbf4dbc298e)" style="fill: none; stroke: #2865a6; stroke-width: 1.6; stroke-linecap: round"/>
    <path d="M 237.524854 204.16 
L 233.124854 201.96 
L 237.524854 199.76 
" clip-path="url(#pbf4dbc298e)" style="fill: none; stroke: #2865a6; stroke-width: 1.6; stroke-linecap: round"/>
    <path d="M 254.523146 199.76 
L 258.923146 201.96 
L 254.523146 204.16 
" clip-path="url(#pbf4dbc298e)" style="fill: none; stroke: #2865a6; stroke-width: 1.6; stroke-linecap: round"/>
   </g>
   <g id="patch_40">
    <path d="M 475.476854 201.96 
Q 488.376 201.96 501.275146 201.96 
" clip-path="url(#pbf4dbc298e)" style="fill: none; stroke: #167e83; stroke-width: 1.6; stroke-linecap: round"/>
    <path d="M 479.876854 204.16 
L 475.476854 201.96 
L 479.876854 199.76 
" clip-path="url(#pbf4dbc298e)" style="fill: none; stroke: #167e83; stroke-width: 1.6; stroke-linecap: round"/>
    <path d="M 496.875146 199.76 
L 501.275146 201.96 
L 496.875146 204.16 
" clip-path="url(#pbf4dbc298e)" style="fill: none; stroke: #167e83; stroke-width: 1.6; stroke-linecap: round"/>
   </g>
   <g id="patch_41">
    <path d="M 35.9856 372.24 
L 698.4144 372.24 
Q 708.696 372.24 708.696 366.696 
L 708.696 336.6 
Q 708.696 331.056 698.4144 331.056 
L 35.9856 331.056 
Q 25.704 331.056 25.704 336.6 
L 25.704 366.696 
Q 25.704 372.24 35.9856 372.24 
z
" clip-path="url(#pbf4dbc298e)" style="fill: #edf7f5; stroke: #c3ddd9; stroke-linejoin: miter"/>
   </g>
   <g id="patch_42">
    <path d="M 609.552 311.256 
Q 609.552 318.78 609.552 324.515146 
" clip-path="url(#pbf4dbc298e)" style="fill: none; stroke: #167e83; stroke-width: 1.6; stroke-linecap: round"/>
    <path d="M 611.752 320.115146 
L 609.552 324.515146 
L 607.352 320.115146 
z
" clip-path="url(#pbf4dbc298e)" style="fill: #167e83; stroke: #167e83; stroke-width: 1.6; stroke-linecap: round"/>
   </g>
   <g id="text_1">
    <text style="font-weight: 700; font-size: 15px; font-family: 'DejaVu Sans'; text-anchor: start; fill: #203342" x="25.704" y="22.692469" transform="rotate(-0 25.704 22.692469)">Representations, network mechanisms, and denoising</text>
   </g>
   <g id="text_2">
    <text style="font-size: 10.5px; font-family: 'DejaVu Sans'; text-anchor: start; fill: #536575" x="25.704" y="37.745344" transform="rotate(-0 25.704 37.745344)">Proposed mechanism (schematic)</text>
   </g>
   <g id="text_3">
    <text style="font-weight: 700; font-size: 9.5px; font-family: 'DejaVu Sans'; text-anchor: start; fill: #c8782f" x="38.9232" y="64.793406" transform="rotate(-0 38.9232 64.793406)">REQUESTED REVISION</text>
   </g>
   <g id="text_4">
    <text style="font-weight: 700; font-size: 11.4px; font-family: 'DejaVu Sans'; text-anchor: start; fill: #203342" x="38.9232" y="80.321156" transform="rotate(-0 38.9232 80.321156)">Woman gives cup to man</text>
   </g>
   <g id="text_5">
    <text style="font-weight: 700; font-size: 11.4px; font-family: 'DejaVu Sans'; text-anchor: start; fill: #203342" x="329.0112" y="80.321156" transform="rotate(-0 329.0112 80.321156)">Man gives cup to woman</text>
   </g>
   <g id="text_6">
    <text style="font-size: 10.5px; font-family: 'DejaVu Sans'; text-anchor: start; fill: #536575" x="38.9232" y="94.769344" transform="rotate(-0 38.9232 94.769344)">Preserve the characters, their clothing, and the child reading.</text>
   </g>
   <g id="text_7">
    <text style="font-weight: 700; font-size: 11.6px; font-family: 'DejaVu Sans'; text-anchor: start; fill: #2865a6" x="38.9232" y="149.324875" transform="rotate(-0 38.9232 149.324875)">1  Semantic components</text>
   </g>
   <g id="text_8">
    <text style="font-size: 10px; font-family: 'DejaVu Sans'; text-anchor: start; fill: #536575" x="38.9232" y="165.515375" transform="rotate(-0 38.9232 165.515375)">Token groups or projections</text>
   </g>
   <g id="text_9">
    <text style="font-weight: 700; font-size: 10.5px; font-family: 'DejaVu Sans'; text-anchor: start; fill: #203342" x="38.9232" y="187.829344" transform="rotate(-0 38.9232 187.829344)">Participants</text>
   </g>
   <g id="text_10">
    <text style="font-weight: 700; font-size: 10.5px; font-family: 'DejaVu Sans'; text-anchor: start; fill: #c8782f" x="38.9232" y="230.201344" transform="rotate(-0 38.9232 230.201344)">Giver–receiver relation</text>
   </g>
   <g id="text_11">
    <text style="font-weight: 700; font-size: 9.8px; font-family: 'DejaVu Sans'; text-anchor: start; fill: #203342" x="38.9232" y="272.341906" transform="rotate(-0 38.9232 272.341906)">Remaining visual information</text>
   </g>
   <g id="text_12">
    <text style="font-weight: 700; font-size: 11.6px; font-family: 'DejaVu Sans'; text-anchor: start; fill: #167e83" x="281.2752" y="149.324875" transform="rotate(-0 281.2752 149.324875)">2  Network computations</text>
   </g>
   <g id="text_13">
    <text style="font-size: 9.5px; font-family: 'DejaVu Sans'; text-anchor: start; fill: #536575" x="281.2752" y="165.377406" transform="rotate(-0 281.2752 165.377406)">Which information, where, when?</text>
   </g>
   <g id="text_14">
    <text style="font-weight: 700; font-size: 10.5px; font-family: 'DejaVu Sans'; text-anchor: middle; fill: #167e83" x="367.2" y="194.124328" transform="rotate(-0 367.2 194.124328)">Attention + projections</text>
   </g>
   <g id="text_15">
    <text style="font-size: 9.8px; font-family: 'DejaVu Sans'; text-anchor: middle; fill: #203342" x="367.2" y="210.604187" transform="rotate(-0 367.2 210.604187)">Pass relevant information</text>
   </g>
   <g id="text_16">
    <text style="font-weight: 700; font-size: 10.5px; font-family: 'DejaVu Sans'; text-anchor: middle; fill: #167e83" x="367.2" y="257.129344" transform="rotate(-0 367.2 257.129344)">MLPs / shared bank</text>
   </g>
   <g id="text_17">
    <text style="font-size: 9.4px; font-family: 'DejaVu Sans'; text-anchor: middle; fill: #203342" x="367.2" y="273.457812" transform="rotate(-0 367.2 273.457812)">Store and use learned features</text>
   </g>
   <g id="text_18">
    <text style="font-weight: 700; font-size: 11.6px; font-family: 'DejaVu Sans'; text-anchor: start; fill: #2865a6" x="523.6272" y="149.279562" transform="rotate(-0 523.6272 149.279562)">3  Asynchronous updates</text>
   </g>
   <g id="text_19">
    <text style="font-size: 9.6px; font-family: 'DejaVu Sans'; text-anchor: start; fill: #536575" x="523.6272" y="165.405" transform="rotate(-0 523.6272 165.405)">Coordinate component progress</text>
   </g>
   <g id="text_20">
    <text style="font-size: 9px; font-family: 'DejaVu Sans'; text-anchor: middle; fill: #536575" x="609.552" y="299.087437" transform="rotate(-0 609.552 299.087437)">Schematic schedules</text>
   </g>
   <g id="text_21">
    <text style="font-weight: 700; font-size: 9.5px; font-family: 'DejaVu Sans'; text-anchor: start; fill: #167e83" x="38.9232" y="345.161406" transform="rotate(-0 38.9232 345.161406)">INTENDED CAPABILITIES</text>
   </g>
   <g id="text_22">
    <text style="font-weight: 700; font-size: 10.1px; font-family: 'DejaVu Sans'; text-anchor: start; fill: #203342" x="38.9232" y="361.523516" transform="rotate(-0 38.9232 361.523516)">Selective scene revision   •   Preservation of other requirements   •   Reusable learned knowledge</text>
   </g>
  </g>
  <g id="axes_2">
   <g id="patch_43">
    <path d="M 536.8464 261.36 
L 685.1952 261.36 
L 685.1952 183.744 
L 536.8464 183.744 
L 536.8464 261.36 
z
" style="fill: none"/>
   </g>
   <g id="matplotlib.axis_1">
    <g id="xtick_1">
     <g id="line2d_1">
      <defs>
       <path id="mb8fe511695" d="M 0 0 
L 0 2 
" style="stroke: #536575; stroke-width: 0.8"/>
      </defs>
      <g>
       <use xlink:href="#mb8fe511695" x="536.8464" y="261.36" style="fill: #536575; stroke: #536575; stroke-width: 0.8"/>
      </g>
     </g>
     <g id="text_23">
      <text style="font-size: 8px; font-family: 'DejaVu Sans'; text-anchor: middle; fill: #536575" x="536.8464" y="271.43875" transform="rotate(-0 536.8464 271.43875)">0</text>
     </g>
    </g>
    <g id="xtick_2">
     <g id="line2d_2">
      <g>
       <use xlink:href="#mb8fe511695" x="685.1952" y="261.36" style="fill: #536575; stroke: #536575; stroke-width: 0.8"/>
      </g>
     </g>
     <g id="text_24">
      <text style="font-size: 8px; font-family: 'DejaVu Sans'; text-anchor: middle; fill: #536575" x="685.1952" y="271.43875" transform="rotate(-0 685.1952 271.43875)">1</text>
     </g>
    </g>
    <g id="text_25">
     <text style="font-size: 9px; font-family: 'DejaVu Sans'; text-anchor: middle; fill: #536575" x="611.0208" y="281.941094" transform="rotate(-0 611.0208 281.941094)">Generation progress</text>
    </g>
   </g>
   <g id="matplotlib.axis_2">
    <g id="ytick_1">
     <g id="line2d_3">
      <defs>
       <path id="me995da56e2" d="M 0 0 
L -2 0 
" style="stroke: #536575; stroke-width: 0.8"/>
      </defs>
      <g>
       <use xlink:href="#me995da56e2" x="536.8464" y="261.36" style="fill: #536575; stroke: #536575; stroke-width: 0.8"/>
      </g>
     </g>
     <g id="text_26">
      <text style="font-size: 8px; font-family: 'DejaVu Sans'; text-anchor: end; fill: #536575" x="532.8464" y="264.399375" transform="rotate(-0 532.8464 264.399375)">0</text>
     </g>
    </g>
    <g id="ytick_2">
     <g id="line2d_4">
      <g>
       <use xlink:href="#me995da56e2" x="536.8464" y="183.744" style="fill: #536575; stroke: #536575; stroke-width: 0.8"/>
      </g>
     </g>
     <g id="text_27">
      <text style="font-size: 8px; font-family: 'DejaVu Sans'; text-anchor: end; fill: #536575" x="532.8464" y="186.783375" transform="rotate(-0 532.8464 186.783375)">1</text>
     </g>
    </g>
   </g>
   <g id="line2d_5">
    <path d="M 536.8464 261.36 
L 547.97256 251.838923 
L 553.906512 247.04468 
L 559.09872 243.12437 
L 563.549184 240.015069 
L 567.999648 237.166997 
L 572.450112 234.598562 
L 576.900576 232.318263 
L 581.35104 230.324394 
L 585.801504 228.605101 
L 590.251968 227.138804 
L 594.702432 225.894958 
L 599.89464 224.673323 
L 606.570336 223.353382 
L 622.888704 220.268858 
L 628.080912 219.01564 
L 632.531376 217.737191 
L 636.98184 216.230618 
L 641.432304 214.466806 
L 645.882768 212.425751 
L 650.333232 210.097271 
L 654.783696 207.481366 
L 659.23416 204.588218 
L 663.684624 201.437831 
L 668.876832 197.476562 
L 674.810784 192.647085 
L 682.969968 185.675193 
L 685.1952 183.744 
L 685.1952 183.744 
" clip-path="url(#pec1b939174)" style="fill: none; stroke: #2865a6; stroke-width: 1.9; stroke-linecap: square"/>
   </g>
   <g id="line2d_6">
    <path d="M 536.8464 261.36 
L 546.489072 259.705713 
L 551.68128 258.616769 
L 556.131744 257.493679 
L 560.582208 256.150109 
L 565.032672 254.551168 
L 568.741392 253.004703 
L 572.450112 251.253073 
L 576.158832 249.291629 
L 580.609296 246.662037 
L 585.05976 243.742 
L 589.510224 240.552474 
L 594.702432 236.531933 
L 600.636384 231.620321 
L 608.795568 224.519714 
L 622.14696 212.854738 
L 628.080912 207.980038 
L 633.27312 204.002407 
L 637.723584 200.855924 
L 642.174048 197.983109 
L 646.624512 195.403247 
L 651.074976 193.125243 
L 654.783696 191.456523 
L 659.23416 189.7196 
L 663.684624 188.252166 
L 668.135088 187.023718 
L 673.327296 185.840183 
L 679.261248 184.725385 
L 685.1952 183.744 
L 685.1952 183.744 
" clip-path="url(#pec1b939174)" style="fill: none; stroke: #c8782f; stroke-width: 1.9; stroke-linecap: square"/>
   </g>
   <g id="line2d_7">
    <path d="M 536.8464 261.36 
L 553.164768 251.338011 
L 562.065696 246.124817 
L 570.22488 241.596587 
L 578.384064 237.340284 
L 586.543248 233.354419 
L 595.444176 229.274538 
L 606.570336 224.444166 
L 628.080912 215.166011 
L 636.98184 211.043891 
L 645.141024 207.010439 
L 652.558464 203.106756 
L 660.717648 198.554861 
L 669.618576 193.320822 
L 681.48648 186.048655 
L 685.1952 183.744 
L 685.1952 183.744 
" clip-path="url(#pec1b939174)" style="fill: none; stroke: #167e83; stroke-width: 1.9; stroke-linecap: square"/>
   </g>
   <g id="patch_44">
    <path d="M 536.8464 261.36 
L 536.8464 183.744 
" style="fill: none; stroke: #c9d3dc; stroke-width: 0.8; stroke-linejoin: miter; stroke-linecap: square"/>
   </g>
   <g id="patch_45">
    <path d="M 536.8464 261.36 
L 685.1952 261.36 
" style="fill: none; stroke: #c9d3dc; stroke-width: 0.8; stroke-linejoin: miter; stroke-linecap: square"/>
   </g>
  </g>
 </g>
 <defs>
  <clipPath id="pbf4dbc298e">
   <rect x="0" y="0" width="734.4" height="396"/>
  </clipPath>
  <clipPath id="pec1b939174">
   <rect x="536.8464" y="183.744" width="148.3488" height="77.616"/>
  </clipPath>
 </defs>
</svg>
